<?xml version="1.0" encoding="UTF-8" standalone="no"?>
<!DOCTYPE svg PUBLIC "-//W3C//DTD SVG 1.1//EN"
 "http://www.w3.org/Graphics/SVG/1.1/DTD/svg11.dtd">
<!-- Generated by graphviz version 2.40.1 (20161225.0304)
 -->
<!-- Title: %0 Pages: 1 -->
<svg width="718pt" height="347pt"
 viewBox="0.00 0.00 717.74 347.40" xmlns="http://www.w3.org/2000/svg" xmlns:xlink="http://www.w3.org/1999/xlink">
<g id="graph0" class="graph" transform="scale(1 1) rotate(0) translate(4 343.4)">
<title>%0</title>
<polygon fill="#ffffff" stroke="transparent" points="-4,4 -4,-343.4 713.7363,-343.4 713.7363,4 -4,4"/>
<text text-anchor="middle" x="354.8682" y="-321" font-family="Roboto Condensed, sans-serif" font-size="16.00" fill="#000000">element&#45;react</text>
<!-- element&#45;react@1.4.34 -->
<g id="node1" class="node">
<title>element&#45;react@1.4.34</title>
<path fill="none" stroke="#000000" d="M97.2518,-182.3011C97.2518,-182.3011 6.2269,-182.3011 6.2269,-182.3011 2.9932,-182.3011 -.2405,-179.0674 -.2405,-175.8337 -.2405,-175.8337 -.2405,-169.3663 -.2405,-169.3663 -.2405,-166.1326 2.9932,-162.8989 6.2269,-162.8989 6.2269,-162.8989 97.2518,-162.8989 97.2518,-162.8989 100.4855,-162.8989 103.7192,-166.1326 103.7192,-169.3663 103.7192,-169.3663 103.7192,-175.8337 103.7192,-175.8337 103.7192,-179.0674 100.4855,-182.3011 97.2518,-182.3011"/>
<text text-anchor="middle" x="51.7394" y="-169.3" font-family="Roboto Condensed, sans-serif" font-size="11.00" fill="#000000">element&#45;react@1.4.34</text>
</g>
<!-- prop&#45;types@15.7.2 -->
<g id="node2" class="node">
<title>prop&#45;types@15.7.2</title>
<path fill="none" stroke="#000000" d="M416.1503,-159.3011C416.1503,-159.3011 338.741,-159.3011 338.741,-159.3011 335.5073,-159.3011 332.2737,-156.0674 332.2737,-152.8337 332.2737,-152.8337 332.2737,-146.3663 332.2737,-146.3663 332.2737,-143.1326 335.5073,-139.8989 338.741,-139.8989 338.741,-139.8989 416.1503,-139.8989 416.1503,-139.8989 419.384,-139.8989 422.6176,-143.1326 422.6176,-146.3663 422.6176,-146.3663 422.6176,-152.8337 422.6176,-152.8337 422.6176,-156.0674 419.384,-159.3011 416.1503,-159.3011"/>
<text text-anchor="middle" x="377.4457" y="-146.3" font-family="Roboto Condensed, sans-serif" font-size="11.00" fill="#000000">prop&#45;types@15.7.2</text>
</g>
<!-- element&#45;react@1.4.34&#45;&gt;prop&#45;types@15.7.2 -->
<g id="edge1" class="edge">
<title>element&#45;react@1.4.34&#45;&gt;prop&#45;types@15.7.2</title>
<path fill="none" stroke="#000000" d="M103.7086,-168.9301C163.386,-164.716 260.8955,-157.8303 321.9981,-153.5155"/>
<polygon fill="#000000" stroke="#000000" points="322.4942,-156.9892 332.2228,-152.7934 322.001,-150.0066 322.4942,-156.9892"/>
</g>
<!-- classnames@2.3.1 -->
<g id="node3" class="node">
<title>classnames@2.3.1</title>
<path fill="none" stroke="#000000" d="M243.6379,-275.3011C243.6379,-275.3011 169.3529,-275.3011 169.3529,-275.3011 166.1192,-275.3011 162.8855,-272.0674 162.8855,-268.8337 162.8855,-268.8337 162.8855,-262.3663 162.8855,-262.3663 162.8855,-259.1326 166.1192,-255.8989 169.3529,-255.8989 169.3529,-255.8989 243.6379,-255.8989 243.6379,-255.8989 246.8716,-255.8989 250.1053,-259.1326 250.1053,-262.3663 250.1053,-262.3663 250.1053,-268.8337 250.1053,-268.8337 250.1053,-272.0674 246.8716,-275.3011 243.6379,-275.3011"/>
<text text-anchor="middle" x="206.4954" y="-262.3" font-family="Roboto Condensed, sans-serif" font-size="11.00" fill="#000000">classnames@2.3.1</text>
</g>
<!-- element&#45;react@1.4.34&#45;&gt;classnames@2.3.1 -->
<g id="edge2" class="edge">
<title>element&#45;react@1.4.34&#45;&gt;classnames@2.3.1</title>
<path fill="none" stroke="#000000" d="M60.1996,-182.2021C74.7899,-198.1664 106.3241,-230.135 139.4787,-247.6 143.7822,-249.867 148.3952,-251.8666 153.113,-253.6268"/>
<polygon fill="#000000" stroke="#000000" points="152.2847,-257.0409 162.8788,-256.9126 154.517,-250.4063 152.2847,-257.0409"/>
</g>
<!-- throttle&#45;debounce@3.0.1 -->
<g id="node4" class="node">
<title>throttle&#45;debounce@3.0.1</title>
<path fill="none" stroke="#000000" d="M257.7413,-238.3011C257.7413,-238.3011 155.2495,-238.3011 155.2495,-238.3011 152.0158,-238.3011 148.7821,-235.0674 148.7821,-231.8337 148.7821,-231.8337 148.7821,-225.3663 148.7821,-225.3663 148.7821,-222.1326 152.0158,-218.8989 155.2495,-218.8989 155.2495,-218.8989 257.7413,-218.8989 257.7413,-218.8989 260.975,-218.8989 264.2087,-222.1326 264.2087,-225.3663 264.2087,-225.3663 264.2087,-231.8337 264.2087,-231.8337 264.2087,-235.0674 260.975,-238.3011 257.7413,-238.3011"/>
<text text-anchor="middle" x="206.4954" y="-225.3" font-family="Roboto Condensed, sans-serif" font-size="11.00" fill="#000000">throttle&#45;debounce@3.0.1</text>
</g>
<!-- element&#45;react@1.4.34&#45;&gt;throttle&#45;debounce@3.0.1 -->
<g id="edge3" class="edge">
<title>element&#45;react@1.4.34&#45;&gt;throttle&#45;debounce@3.0.1</title>
<path fill="none" stroke="#000000" d="M71.6194,-182.2051C89.1898,-190.4528 115.6542,-202.2914 139.4787,-210.6 145.0899,-212.5569 151.027,-214.4279 156.9559,-216.1736"/>
<polygon fill="#000000" stroke="#000000" points="156.2917,-219.6232 166.8673,-218.986 158.2026,-212.8891 156.2917,-219.6232"/>
</g>
<!-- raf@3.4.1 -->
<g id="node5" class="node">
<title>raf@3.4.1</title>
<path fill="none" stroke="#000000" d="M225.3658,-312.3011C225.3658,-312.3011 187.625,-312.3011 187.625,-312.3011 184.3914,-312.3011 181.1577,-309.0674 181.1577,-305.8337 181.1577,-305.8337 181.1577,-299.3663 181.1577,-299.3663 181.1577,-296.1326 184.3914,-292.8989 187.625,-292.8989 187.625,-292.8989 225.3658,-292.8989 225.3658,-292.8989 228.5994,-292.8989 231.8331,-296.1326 231.8331,-299.3663 231.8331,-299.3663 231.8331,-305.8337 231.8331,-305.8337 231.8331,-309.0674 228.5994,-312.3011 225.3658,-312.3011"/>
<text text-anchor="middle" x="206.4954" y="-299.3" font-family="Roboto Condensed, sans-serif" font-size="11.00" fill="#000000">raf@3.4.1</text>
</g>
<!-- element&#45;react@1.4.34&#45;&gt;raf@3.4.1 -->
<g id="edge4" class="edge">
<title>element&#45;react@1.4.34&#45;&gt;raf@3.4.1</title>
<path fill="none" stroke="#000000" d="M56.5828,-182.4213C67.8999,-204.318 98.2742,-257.3483 139.4787,-284.6 148.8449,-290.7946 160.2751,-294.8645 171.0245,-297.5357"/>
<polygon fill="#000000" stroke="#000000" points="170.5197,-301.0072 181.0326,-299.6919 171.9941,-294.1642 170.5197,-301.0072"/>
</g>
<!-- react&#45;click&#45;outside@3.0.1 -->
<g id="node6" class="node">
<title>react&#45;click&#45;outside@3.0.1</title>
<path fill="none" stroke="#000000" d="M260.0034,-201.3011C260.0034,-201.3011 152.9874,-201.3011 152.9874,-201.3011 149.7537,-201.3011 146.52,-198.0674 146.52,-194.8337 146.52,-194.8337 146.52,-188.3663 146.52,-188.3663 146.52,-185.1326 149.7537,-181.8989 152.9874,-181.8989 152.9874,-181.8989 260.0034,-181.8989 260.0034,-181.8989 263.2371,-181.8989 266.4708,-185.1326 266.4708,-188.3663 266.4708,-188.3663 266.4708,-194.8337 266.4708,-194.8337 266.4708,-198.0674 263.2371,-201.3011 260.0034,-201.3011"/>
<text text-anchor="middle" x="206.4954" y="-188.3" font-family="Roboto Condensed, sans-serif" font-size="11.00" fill="#000000">react&#45;click&#45;outside@3.0.1</text>
</g>
<!-- element&#45;react@1.4.34&#45;&gt;react&#45;click&#45;outside@3.0.1 -->
<g id="edge5" class="edge">
<title>element&#45;react@1.4.34&#45;&gt;react&#45;click&#45;outside@3.0.1</title>
<path fill="none" stroke="#000000" d="M103.7014,-178.9796C114.1891,-180.2672 125.3776,-181.6408 136.3691,-182.9903"/>
<polygon fill="#000000" stroke="#000000" points="136.0303,-186.4749 146.3823,-184.2197 136.8834,-179.5271 136.0303,-186.4749"/>
</g>
<!-- popper.js@1.16.1 -->
<g id="node7" class="node">
<title>popper.js@1.16.1</title>
<path fill="none" stroke="#000000" d="M242.2879,-125.3011C242.2879,-125.3011 170.7029,-125.3011 170.7029,-125.3011 167.4692,-125.3011 164.2355,-122.0674 164.2355,-118.8337 164.2355,-118.8337 164.2355,-112.3663 164.2355,-112.3663 164.2355,-109.1326 167.4692,-105.8989 170.7029,-105.8989 170.7029,-105.8989 242.2879,-105.8989 242.2879,-105.8989 245.5216,-105.8989 248.7553,-109.1326 248.7553,-112.3663 248.7553,-112.3663 248.7553,-118.8337 248.7553,-118.8337 248.7553,-122.0674 245.5216,-125.3011 242.2879,-125.3011"/>
<text text-anchor="middle" x="206.4954" y="-112.3" font-family="Roboto Condensed, sans-serif" font-size="11.00" fill="#000000">popper.js@1.16.1</text>
</g>
<!-- element&#45;react@1.4.34&#45;&gt;popper.js@1.16.1 -->
<g id="edge6" class="edge">
<title>element&#45;react@1.4.34&#45;&gt;popper.js@1.16.1</title>
<path fill="none" stroke="#000000" d="M77.0405,-162.9626C94.5469,-156.3241 118.3958,-147.3393 139.4787,-139.6 149.2239,-136.0226 159.7892,-132.2089 169.5873,-128.6991"/>
<polygon fill="#000000" stroke="#000000" points="170.8315,-131.9714 179.0707,-125.3107 168.4761,-125.3795 170.8315,-131.9714"/>
</g>
<!-- async&#45;validator@3.5.1 -->
<g id="node8" class="node">
<title>async&#45;validator@3.5.1</title>
<path fill="none" stroke="#000000" d="M252.962,-88.3011C252.962,-88.3011 160.0288,-88.3011 160.0288,-88.3011 156.7952,-88.3011 153.5615,-85.0674 153.5615,-81.8337 153.5615,-81.8337 153.5615,-75.3663 153.5615,-75.3663 153.5615,-72.1326 156.7952,-68.8989 160.0288,-68.8989 160.0288,-68.8989 252.962,-68.8989 252.962,-68.8989 256.1956,-68.8989 259.4293,-72.1326 259.4293,-75.3663 259.4293,-75.3663 259.4293,-81.8337 259.4293,-81.8337 259.4293,-85.0674 256.1956,-88.3011 252.962,-88.3011"/>
<text text-anchor="middle" x="206.4954" y="-75.3" font-family="Roboto Condensed, sans-serif" font-size="11.00" fill="#000000">async&#45;validator@3.5.1</text>
</g>
<!-- element&#45;react@1.4.34&#45;&gt;async&#45;validator@3.5.1 -->
<g id="edge7" class="edge">
<title>element&#45;react@1.4.34&#45;&gt;async&#45;validator@3.5.1</title>
<path fill="none" stroke="#000000" d="M60.1714,-162.8644C74.72,-146.6792 106.1944,-114.2728 139.4787,-96.6 142.8138,-94.8292 146.3368,-93.2222 149.9518,-91.7654"/>
<polygon fill="#000000" stroke="#000000" points="151.4561,-94.9433 159.6696,-88.2507 149.0753,-88.3605 151.4561,-94.9433"/>
</g>
<!-- react&#45;transition&#45;group@4.4.1 -->
<g id="node9" class="node">
<title>react&#45;transition&#45;group@4.4.1</title>
<path fill="none" stroke="#000000" d="M267.0614,-51.3011C267.0614,-51.3011 145.9294,-51.3011 145.9294,-51.3011 142.6957,-51.3011 139.462,-48.0674 139.462,-44.8337 139.462,-44.8337 139.462,-38.3663 139.462,-38.3663 139.462,-35.1326 142.6957,-31.8989 145.9294,-31.8989 145.9294,-31.8989 267.0614,-31.8989 267.0614,-31.8989 270.2951,-31.8989 273.5288,-35.1326 273.5288,-38.3663 273.5288,-38.3663 273.5288,-44.8337 273.5288,-44.8337 273.5288,-48.0674 270.2951,-51.3011 267.0614,-51.3011"/>
<text text-anchor="middle" x="206.4954" y="-38.3" font-family="Roboto Condensed, sans-serif" font-size="11.00" fill="#000000">react&#45;transition&#45;group@4.4.1</text>
</g>
<!-- element&#45;react@1.4.34&#45;&gt;react&#45;transition&#45;group@4.4.1 -->
<g id="edge8" class="edge">
<title>element&#45;react@1.4.34&#45;&gt;react&#45;transition&#45;group@4.4.1</title>
<path fill="none" stroke="#000000" d="M56.5585,-162.6906C67.8259,-140.5975 98.105,-87.092 139.4787,-59.6 141.8775,-58.0061 144.4126,-56.5529 147.0378,-55.228"/>
<polygon fill="#000000" stroke="#000000" points="148.4846,-58.4154 156.2427,-51.2 145.6783,-52.0025 148.4846,-58.4154"/>
</g>
<!-- loose&#45;envify@1.4.0 -->
<g id="node10" class="node">
<title>loose&#45;envify@1.4.0</title>
<path fill="none" stroke="#000000" d="M578.7795,-117.3011C578.7795,-117.3011 498.4917,-117.3011 498.4917,-117.3011 495.258,-117.3011 492.0243,-114.0674 492.0243,-110.8337 492.0243,-110.8337 492.0243,-104.3663 492.0243,-104.3663 492.0243,-101.1326 495.258,-97.8989 498.4917,-97.8989 498.4917,-97.8989 578.7795,-97.8989 578.7795,-97.8989 582.0132,-97.8989 585.2469,-101.1326 585.2469,-104.3663 585.2469,-104.3663 585.2469,-110.8337 585.2469,-110.8337 585.2469,-114.0674 582.0132,-117.3011 578.7795,-117.3011"/>
<text text-anchor="middle" x="538.6356" y="-104.3" font-family="Roboto Condensed, sans-serif" font-size="11.00" fill="#000000">loose&#45;envify@1.4.0</text>
</g>
<!-- prop&#45;types@15.7.2&#45;&gt;loose&#45;envify@1.4.0 -->
<g id="edge10" class="edge">
<title>prop&#45;types@15.7.2&#45;&gt;loose&#45;envify@1.4.0</title>
<path fill="none" stroke="#000000" d="M414.4259,-139.9644C437.3812,-133.9831 467.0917,-126.2416 491.6992,-119.8298"/>
<polygon fill="#000000" stroke="#000000" points="492.7543,-123.1719 501.5487,-117.2634 490.9893,-116.398 492.7543,-123.1719"/>
</g>
<!-- object&#45;assign@4.1.1 -->
<g id="node13" class="node">
<title>object&#45;assign@4.1.1</title>
<path fill="none" stroke="#000000" d="M580.3354,-159.3011C580.3354,-159.3011 496.9358,-159.3011 496.9358,-159.3011 493.7021,-159.3011 490.4685,-156.0674 490.4685,-152.8337 490.4685,-152.8337 490.4685,-146.3663 490.4685,-146.3663 490.4685,-143.1326 493.7021,-139.8989 496.9358,-139.8989 496.9358,-139.8989 580.3354,-139.8989 580.3354,-139.8989 583.5691,-139.8989 586.8027,-143.1326 586.8027,-146.3663 586.8027,-146.3663 586.8027,-152.8337 586.8027,-152.8337 586.8027,-156.0674 583.5691,-159.3011 580.3354,-159.3011"/>
<text text-anchor="middle" x="538.6356" y="-146.3" font-family="Roboto Condensed, sans-serif" font-size="11.00" fill="#000000">object&#45;assign@4.1.1</text>
</g>
<!-- prop&#45;types@15.7.2&#45;&gt;object&#45;assign@4.1.1 -->
<g id="edge14" class="edge">
<title>prop&#45;types@15.7.2&#45;&gt;object&#45;assign@4.1.1</title>
<path fill="none" stroke="#000000" d="M422.775,-149.6C440.6135,-149.6 461.3231,-149.6 480.258,-149.6"/>
<polygon fill="#000000" stroke="#000000" points="480.2682,-153.1001 490.2682,-149.6 480.2681,-146.1001 480.2682,-153.1001"/>
</g>
<!-- react&#45;is@17.0.2 -->
<g id="node14" class="node">
<title>react&#45;is@17.0.2</title>
<path fill="none" stroke="#000000" d="M570.1623,-196.3011C570.1623,-196.3011 507.1089,-196.3011 507.1089,-196.3011 503.8752,-196.3011 500.6415,-193.0674 500.6415,-189.8337 500.6415,-189.8337 500.6415,-183.3663 500.6415,-183.3663 500.6415,-180.1326 503.8752,-176.8989 507.1089,-176.8989 507.1089,-176.8989 570.1623,-176.8989 570.1623,-176.8989 573.396,-176.8989 576.6297,-180.1326 576.6297,-183.3663 576.6297,-183.3663 576.6297,-189.8337 576.6297,-189.8337 576.6297,-193.0674 573.396,-196.3011 570.1623,-196.3011"/>
<text text-anchor="middle" x="538.6356" y="-183.3" font-family="Roboto Condensed, sans-serif" font-size="11.00" fill="#000000">react&#45;is@17.0.2</text>
</g>
<!-- prop&#45;types@15.7.2&#45;&gt;react&#45;is@17.0.2 -->
<g id="edge15" class="edge">
<title>prop&#45;types@15.7.2&#45;&gt;react&#45;is@17.0.2</title>
<path fill="none" stroke="#000000" d="M419.3756,-159.2247C441.2336,-164.2421 468.0642,-170.4008 490.7374,-175.6053"/>
<polygon fill="#000000" stroke="#000000" points="489.9709,-179.0203 500.5005,-177.8463 491.537,-172.1977 489.9709,-179.0203"/>
</g>
<!-- performance&#45;now@2.1.0 -->
<g id="node12" class="node">
<title>performance&#45;now@2.1.0</title>
<path fill="none" stroke="#000000" d="M429.2856,-312.3011C429.2856,-312.3011 325.6057,-312.3011 325.6057,-312.3011 322.372,-312.3011 319.1383,-309.0674 319.1383,-305.8337 319.1383,-305.8337 319.1383,-299.3663 319.1383,-299.3663 319.1383,-296.1326 322.372,-292.8989 325.6057,-292.8989 325.6057,-292.8989 429.2856,-292.8989 429.2856,-292.8989 432.5193,-292.8989 435.753,-296.1326 435.753,-299.3663 435.753,-299.3663 435.753,-305.8337 435.753,-305.8337 435.753,-309.0674 432.5193,-312.3011 429.2856,-312.3011"/>
<text text-anchor="middle" x="377.4457" y="-299.3" font-family="Roboto Condensed, sans-serif" font-size="11.00" fill="#000000">performance&#45;now@2.1.0</text>
</g>
<!-- raf@3.4.1&#45;&gt;performance&#45;now@2.1.0 -->
<g id="edge13" class="edge">
<title>raf@3.4.1&#45;&gt;performance&#45;now@2.1.0</title>
<path fill="none" stroke="#000000" d="M231.7197,-302.6C252.0614,-302.6 281.6662,-302.6 308.8867,-302.6"/>
<polygon fill="#000000" stroke="#000000" points="309.1783,-306.1001 319.1782,-302.6 309.1782,-299.1001 309.1783,-306.1001"/>
</g>
<!-- hoist&#45;non&#45;react&#45;statics@3.3.2 -->
<g id="node11" class="node">
<title>hoist&#45;non&#45;react&#45;statics@3.3.2</title>
<path fill="none" stroke="#000000" d="M438.8454,-201.3011C438.8454,-201.3011 316.0459,-201.3011 316.0459,-201.3011 312.8122,-201.3011 309.5785,-198.0674 309.5785,-194.8337 309.5785,-194.8337 309.5785,-188.3663 309.5785,-188.3663 309.5785,-185.1326 312.8122,-181.8989 316.0459,-181.8989 316.0459,-181.8989 438.8454,-181.8989 438.8454,-181.8989 442.0791,-181.8989 445.3128,-185.1326 445.3128,-188.3663 445.3128,-188.3663 445.3128,-194.8337 445.3128,-194.8337 445.3128,-198.0674 442.0791,-201.3011 438.8454,-201.3011"/>
<text text-anchor="middle" x="377.4457" y="-188.3" font-family="Roboto Condensed, sans-serif" font-size="11.00" fill="#000000">hoist&#45;non&#45;react&#45;statics@3.3.2</text>
</g>
<!-- react&#45;click&#45;outside@3.0.1&#45;&gt;hoist&#45;non&#45;react&#45;statics@3.3.2 -->
<g id="edge12" class="edge">
<title>react&#45;click&#45;outside@3.0.1&#45;&gt;hoist&#45;non&#45;react&#45;statics@3.3.2</title>
<path fill="none" stroke="#000000" d="M266.7661,-191.6C277.3642,-191.6 288.5301,-191.6 299.5278,-191.6"/>
<polygon fill="#000000" stroke="#000000" points="299.5593,-195.1001 309.5593,-191.6 299.5593,-188.1001 299.5593,-195.1001"/>
</g>
<!-- react&#45;transition&#45;group@4.4.1&#45;&gt;prop&#45;types@15.7.2 -->
<g id="edge9" class="edge">
<title>react&#45;transition&#45;group@4.4.1&#45;&gt;prop&#45;types@15.7.2</title>
<path fill="none" stroke="#000000" d="M258.4495,-51.2873C263.8097,-53.5096 268.9534,-56.2416 273.5121,-59.6 297.6355,-77.3719 287.1813,-96.6222 309.5121,-116.6 318.1909,-124.3643 329.0242,-130.7131 339.4725,-135.6941"/>
<polygon fill="#000000" stroke="#000000" points="338.3277,-139.0156 348.8868,-139.8853 341.1747,-132.6207 338.3277,-139.0156"/>
</g>
<!-- react&#45;transition&#45;group@4.4.1&#45;&gt;loose&#45;envify@1.4.0 -->
<g id="edge11" class="edge">
<title>react&#45;transition&#45;group@4.4.1&#45;&gt;loose&#45;envify@1.4.0</title>
<path fill="none" stroke="#000000" d="M246.0225,-51.273C265.1512,-55.8352 288.4768,-61.2243 309.5121,-65.6 368.1625,-77.8003 435.6535,-89.9439 482.1168,-98.0116"/>
<polygon fill="#000000" stroke="#000000" points="481.5428,-101.4642 491.9931,-99.7201 482.7361,-94.5667 481.5428,-101.4642"/>
</g>
<!-- dom&#45;helpers@5.2.0 -->
<g id="node15" class="node">
<title>dom&#45;helpers@5.2.0</title>
<path fill="none" stroke="#000000" d="M417.5895,-56.3011C417.5895,-56.3011 337.3018,-56.3011 337.3018,-56.3011 334.0681,-56.3011 330.8344,-53.0674 330.8344,-49.8337 330.8344,-49.8337 330.8344,-43.3663 330.8344,-43.3663 330.8344,-40.1326 334.0681,-36.8989 337.3018,-36.8989 337.3018,-36.8989 417.5895,-36.8989 417.5895,-36.8989 420.8232,-36.8989 424.0569,-40.1326 424.0569,-43.3663 424.0569,-43.3663 424.0569,-49.8337 424.0569,-49.8337 424.0569,-53.0674 420.8232,-56.3011 417.5895,-56.3011"/>
<text text-anchor="middle" x="377.4457" y="-43.3" font-family="Roboto Condensed, sans-serif" font-size="11.00" fill="#000000">dom&#45;helpers@5.2.0</text>
</g>
<!-- react&#45;transition&#45;group@4.4.1&#45;&gt;dom&#45;helpers@5.2.0 -->
<g id="edge17" class="edge">
<title>react&#45;transition&#45;group@4.4.1&#45;&gt;dom&#45;helpers@5.2.0</title>
<path fill="none" stroke="#000000" d="M273.5688,-43.5618C289.1491,-44.0175 305.5858,-44.4982 320.6727,-44.9395"/>
<polygon fill="#000000" stroke="#000000" points="320.7767,-48.4439 330.8748,-45.2379 320.9814,-41.4469 320.7767,-48.4439"/>
</g>
<!-- @babel/runtime@^7.5.5 -->
<g id="node16" class="node">
<title>@babel/runtime@^7.5.5</title>
<path fill="none" stroke="#000000" d="M427.9921,-19.3011C427.9921,-19.3011 326.8992,-19.3011 326.8992,-19.3011 323.6655,-19.3011 320.4318,-16.0674 320.4318,-12.8337 320.4318,-12.8337 320.4318,-6.3663 320.4318,-6.3663 320.4318,-3.1326 323.6655,.1011 326.8992,.1011 326.8992,.1011 427.9921,.1011 427.9921,.1011 431.2258,.1011 434.4595,-3.1326 434.4595,-6.3663 434.4595,-6.3663 434.4595,-12.8337 434.4595,-12.8337 434.4595,-16.0674 431.2258,-19.3011 427.9921,-19.3011"/>
<text text-anchor="middle" x="377.4457" y="-6.3" font-family="Roboto Condensed, sans-serif" font-size="11.00" fill="#000000">@babel/runtime@^7.5.5</text>
</g>
<!-- react&#45;transition&#45;group@4.4.1&#45;&gt;@babel/runtime@^7.5.5 -->
<g id="edge18" class="edge">
<title>react&#45;transition&#45;group@4.4.1&#45;&gt;@babel/runtime@^7.5.5</title>
<path fill="none" stroke="#000000" d="M257.7861,-31.9989C276.0432,-28.5814 296.7915,-24.6976 315.8245,-21.1348"/>
<polygon fill="#000000" stroke="#000000" points="316.7107,-24.5298 325.8959,-19.2495 315.4226,-17.6493 316.7107,-24.5298"/>
</g>
<!-- js&#45;tokens@6.0.0 -->
<g id="node18" class="node">
<title>js&#45;tokens@6.0.0</title>
<path fill="none" stroke="#000000" d="M703.1912,-117.3011C703.1912,-117.3011 638.4371,-117.3011 638.4371,-117.3011 635.2034,-117.3011 631.9697,-114.0674 631.9697,-110.8337 631.9697,-110.8337 631.9697,-104.3663 631.9697,-104.3663 631.9697,-101.1326 635.2034,-97.8989 638.4371,-97.8989 638.4371,-97.8989 703.1912,-97.8989 703.1912,-97.8989 706.4249,-97.8989 709.6586,-101.1326 709.6586,-104.3663 709.6586,-104.3663 709.6586,-110.8337 709.6586,-110.8337 709.6586,-114.0674 706.4249,-117.3011 703.1912,-117.3011"/>
<text text-anchor="middle" x="670.8142" y="-104.3" font-family="Roboto Condensed, sans-serif" font-size="11.00" fill="#000000">js&#45;tokens@6.0.0</text>
</g>
<!-- loose&#45;envify@1.4.0&#45;&gt;js&#45;tokens@6.0.0 -->
<g id="edge20" class="edge">
<title>loose&#45;envify@1.4.0&#45;&gt;js&#45;tokens@6.0.0</title>
<path fill="none" stroke="#000000" d="M585.2368,-107.6C596.9641,-107.6 609.5904,-107.6 621.4481,-107.6"/>
<polygon fill="#000000" stroke="#000000" points="621.6286,-111.1001 631.6286,-107.6 621.6285,-104.1001 621.6286,-111.1001"/>
</g>
<!-- hoist&#45;non&#45;react&#45;statics@3.3.2&#45;&gt;react&#45;is@17.0.2 -->
<g id="edge16" class="edge">
<title>hoist&#45;non&#45;react&#45;statics@3.3.2&#45;&gt;react&#45;is@17.0.2</title>
<path fill="none" stroke="#000000" d="M445.3375,-189.494C460.2842,-189.0304 475.8287,-188.5482 489.8448,-188.1135"/>
<polygon fill="#000000" stroke="#000000" points="490.3431,-191.5998 500.2298,-187.7913 490.126,-184.6031 490.3431,-191.5998"/>
</g>
<!-- @babel/runtime@^7.8.7 -->
<g id="node17" class="node">
<title>@babel/runtime@^7.8.7</title>
<path fill="none" stroke="#000000" d="M589.1821,-43.3011C589.1821,-43.3011 488.0891,-43.3011 488.0891,-43.3011 484.8555,-43.3011 481.6218,-40.0674 481.6218,-36.8337 481.6218,-36.8337 481.6218,-30.3663 481.6218,-30.3663 481.6218,-27.1326 484.8555,-23.8989 488.0891,-23.8989 488.0891,-23.8989 589.1821,-23.8989 589.1821,-23.8989 592.4157,-23.8989 595.6494,-27.1326 595.6494,-30.3663 595.6494,-30.3663 595.6494,-36.8337 595.6494,-36.8337 595.6494,-40.0674 592.4157,-43.3011 589.1821,-43.3011"/>
<text text-anchor="middle" x="538.6356" y="-30.3" font-family="Roboto Condensed, sans-serif" font-size="11.00" fill="#000000">@babel/runtime@^7.8.7</text>
</g>
<!-- dom&#45;helpers@5.2.0&#45;&gt;@babel/runtime@^7.8.7 -->
<g id="edge19" class="edge">
<title>dom&#45;helpers@5.2.0&#45;&gt;@babel/runtime@^7.8.7</title>
<path fill="none" stroke="#000000" d="M424.0685,-42.8399C438.789,-41.6526 455.3603,-40.3162 471.2303,-39.0363"/>
<polygon fill="#000000" stroke="#000000" points="471.8451,-42.4981 481.5313,-38.2055 471.2823,-35.5208 471.8451,-42.4981"/>
</g>
<!-- csstype@3.0.7 -->
<g id="node19" class="node">
<title>csstype@3.0.7</title>
<path fill="none" stroke="#000000" d="M567.1783,-80.3011C567.1783,-80.3011 510.0929,-80.3011 510.0929,-80.3011 506.8592,-80.3011 503.6255,-77.0674 503.6255,-73.8337 503.6255,-73.8337 503.6255,-67.3663 503.6255,-67.3663 503.6255,-64.1326 506.8592,-60.8989 510.0929,-60.8989 510.0929,-60.8989 567.1783,-60.8989 567.1783,-60.8989 570.412,-60.8989 573.6457,-64.1326 573.6457,-67.3663 573.6457,-67.3663 573.6457,-73.8337 573.6457,-73.8337 573.6457,-77.0674 570.412,-80.3011 567.1783,-80.3011"/>
<text text-anchor="middle" x="538.6356" y="-67.3" font-family="Roboto Condensed, sans-serif" font-size="11.00" fill="#000000">csstype@3.0.7</text>
</g>
<!-- dom&#45;helpers@5.2.0&#45;&gt;csstype@3.0.7 -->
<g id="edge21" class="edge">
<title>dom&#45;helpers@5.2.0&#45;&gt;csstype@3.0.7</title>
<path fill="none" stroke="#000000" d="M424.0685,-53.5418C445.9012,-56.7925 471.8052,-60.6494 493.4539,-63.8728"/>
<polygon fill="#000000" stroke="#000000" points="492.9799,-67.3407 503.3863,-65.3516 494.0108,-60.417 492.9799,-67.3407"/>
</g>
</g>
</svg>
